<?xml version="1.0" standalone="no"?><!DOCTYPE svg PUBLIC "-//W3C//DTD SVG 1.1//EN" "http://www.w3.org/Graphics/SVG/1.1/DTD/svg11.dtd"><svg t="1570794947416" class="icon" viewBox="0 0 1024 1024" version="1.1" xmlns="http://www.w3.org/2000/svg" p-id="2712" xmlns:xlink="http://www.w3.org/1999/xlink" width="200" height="200"><defs><style type="text/css"></style></defs><path d="M696.498 536.917c61.909-54.848 101.407-138.143 101.407-231.467 0-165.465-124.226-299.413-277.31-299.413-153.185 0-277.412 133.948-277.412 299.31 0 82.99 31.313 158.2 81.965 212.332 6.242 6.038 182.657 169.251 371.35 19.238m186.033 207.01l-150.73-137.324c-56.587 46.354-216.936 144.18-438.58-3.48-66.82 51.37-245.076 198.824-225.326 298.288 0 0 3.479 103.76 192.07 108.775 0 0 561.988 41.545 655.413-55.258-0.102 0 102.022-65.694-32.847-211" fill="#8290A3" p-id="2713"></path></svg>