<?xml version="1.0" standalone="no"?><!DOCTYPE svg PUBLIC "-//W3C//DTD SVG 1.1//EN" "http://www.w3.org/Graphics/SVG/1.1/DTD/svg11.dtd"><svg t="1571034484285" class="icon" viewBox="0 0 1024 1024" version="1.1" xmlns="http://www.w3.org/2000/svg" p-id="2468" xmlns:xlink="http://www.w3.org/1999/xlink" width="200" height="200"><defs><style type="text/css"></style></defs><path d="M704 51.2c147.968 0 268.8 120.832 268.8 268.8S851.968 588.8 704 588.8 435.2 467.968 435.2 320 556.032 51.2 704 51.2m0-51.2C527.36 0 384 143.36 384 320s143.36 320 320 320S1024 496.64 1024 320 880.64 0 704 0z" fill="" p-id="2469"></path><path d="M704 243.2c42.496 0 76.8 34.304 76.8 76.8s-34.304 76.8-76.8 76.8-76.8-34.304-76.8-76.8 34.304-76.8 76.8-76.8m0-51.2c-70.656 0-128 57.344-128 128s57.344 128 128 128 128-57.344 128-128-57.344-128-128-128zM116.736 1024C52.736 1024 0.512 971.776 0.512 907.776c0-32.256 16.384-62.464 31.232-79.872l1.024-1.536 385.536-385.536c10.24-10.24 26.112-10.24 36.352 0s10.24 26.112 0 36.352l-385.024 385.024c-10.752 12.8-18.432 31.232-18.432 45.568 0 35.84 29.184 65.024 65.024 65.024 17.408 0 35.84-10.24 46.592-19.968l55.296-55.296c9.728-9.728 22.528-15.36 36.352-15.36 13.824 0 26.624 5.632 36.352 15.36l30.72 30.72c10.24 10.24 10.24 26.112 0 36.352s-26.112 10.24-36.352 0l-30.72-30.72-56.32 56.32c-16.896 16.384-47.616 33.792-81.408 33.792z" fill="" p-id="2470"></path><path d="M442.88 923.648c-6.656 0-13.312-2.56-17.92-7.68L348.672 839.68l-6.656 6.656c-10.24 10.24-26.112 10.24-36.352 0s-10.24-26.112 0-36.352L312.32 803.84c20.48-20.48 52.224-20.48 72.704 0L460.8 880.128c10.24 10.24 10.24 26.112 0 36.352-4.608 4.608-11.264 7.168-17.92 7.168zM476.16 806.912c-6.656 0-13.312-2.56-17.92-7.68l-34.816-34.816c-18.944-19.968-18.944-51.712 0-71.68l0.512-0.512 124.928-125.44c10.24-10.24 26.112-10.24 36.352 0s10.24 26.112 0 36.352L460.8 728.064v1.024l33.792 33.792c10.24 10.24 10.24 26.112 0 36.352-5.12 5.12-11.776 7.68-18.432 7.68z" fill="" p-id="2471"></path></svg>